<?xml version="1.0" encoding="UTF-8" standalone="no"?>
<svg width="13px" height="21px" viewBox="0 0 13 21" version="1.1" xmlns="http://www.w3.org/2000/svg" xmlns:xlink="http://www.w3.org/1999/xlink">
    <!-- Generator: Sketch 3.7.2 (28276) - http://www.bohemiancoding.com/sketch -->
    <title>chevy-right</title>
    <desc>Created with Sketch.</desc>
    <defs></defs>
    <g id="Mobile" stroke="none" stroke-width="1" fill="none" fill-rule="evenodd">
        <g id="mobile_event" transform="translate(-149.000000, -813.000000)" fill="#FFFFFF">
            <path d="M152.012987,813.883117 C151.666665,813.536795 151.251085,813.363636 150.766234,813.363636 C150.281383,813.363636 149.865803,813.536795 149.519481,813.883117 C149.173158,814.229438 149,814.645019 149,815.12987 C149,815.614721 149.173158,816.030302 149.519481,816.376623 L157.207792,823.363638 L149.519481,830.350649 C149.173158,830.696971 149,831.112552 149,831.597403 C149,832.082254 149.173158,832.497834 149.519481,832.844156 C149.865803,833.190478 150.281383,833.363636 150.766234,833.363636 C151.251085,833.363636 151.666665,833.190478 152.012987,832.844156 L160.974024,824.714287 C161.147187,824.541125 161.277055,824.333336 161.363636,824.090911 C161.450218,823.848482 161.484847,823.606063 161.467532,823.363638 C161.484847,823.121209 161.450218,822.878791 161.363636,822.636365 C161.277055,822.393937 161.147187,822.186148 160.974024,822.012989 L152.012987,813.883117 Z" id="chevy-right"></path>
        </g>
    </g>
</svg>