<?xml version="1.0" encoding="UTF-8" standalone="no"?>
<svg width="20px" height="24px" viewBox="0 0 20 24" version="1.1" xmlns="http://www.w3.org/2000/svg" xmlns:xlink="http://www.w3.org/1999/xlink">
    <!-- Generator: Sketch 3.7.2 (28276) - http://www.bohemiancoding.com/sketch -->
    <title>key</title>
    <desc>Created with Sketch.</desc>
    <defs></defs>
    <g id="Mobile" stroke="none" stroke-width="1" fill="none" fill-rule="evenodd">
        <g id="mobile_home" transform="translate(-71.000000, -138.000000)" fill="#2892D7">
            <g id="section_login" transform="translate(71.000000, 126.000000)">
                <path d="M18.9765016,17.5333942 C18.8171124,16.6248838 18.5063088,15.8000618 18.0440848,15.0589065 C17.5818607,14.3177543 17.0120572,13.7001346 16.3346558,13.2060291 C15.6572575,12.7119266 14.9081456,12.3652631 14.0872957,12.1660296 C13.2664489,11.966793 12.4177203,11.9468709 11.5410853,12.1062602 C10.6644504,12.2656464 9.83963139,12.5525404 9.06659766,12.9669513 C8.293567,13.3813591 7.63609998,13.899362 7.09418133,14.5209753 C6.55226267,15.1425886 6.14981422,15.8478687 5.88682374,16.6368402 C5.62383327,17.4258116 5.57203267,18.2745403 5.73141889,19.1830536 C5.79517582,19.5815207 5.9107303,20.055695 6.07808843,20.6055825 C6.24544657,21.155473 6.44069262,21.6535508 6.66383578,22.0998371 L0.32819296,31.5435326 C0.200682545,31.7188596 0.109035789,31.9419997 0.0532499694,32.212959 C-0.00253584429,32.4839184 -0.014489768,32.7229962 0.0173878403,32.9302016 L0.423825304,35.3449183 C0.471641782,35.5521229 0.579227099,35.7194776 0.746584313,35.8469881 C0.913941834,35.9744985 1.0932508,36.0223143 1.2845164,35.9904366 L3.14934559,35.6318154 C3.35655104,35.5999378 3.56773786,35.5082911 3.78291217,35.3568725 C3.99808647,35.2054536 4.16145406,35.0341141 4.27302717,34.8428485 L6.78337468,30.8023804 L6.80728429,30.7784739 L8.50475688,30.4676703 L11.4215464,25.7099596 C11.8997082,25.7896543 12.4456051,25.8215297 13.0592496,25.805592 C13.672894,25.7896543 14.1789437,25.7498069 14.5774138,25.6860531 C15.4540457,25.5107261 16.2031575,25.1600752 16.8247708,24.6340973 C17.4463872,24.1081163 17.9444649,23.4705714 18.3190285,22.7214504 C18.693589,21.9723263 18.9326668,21.1475042 19.0362711,20.2469627 C19.1398723,19.3464182 19.1199502,18.4419045 18.9765016,17.5333942 L18.9765016,17.5333942 Z M15.8684474,19.3982249 C15.3902857,20.1154705 14.8922049,20.3266574 14.3741928,20.0317884 C13.8561837,19.7369225 13.2545017,19.334471 12.5691346,18.8244308 C11.8837643,18.3303283 11.3179452,17.8760793 10.8716589,17.4616714 C10.4253726,17.0472605 10.4413103,16.4814414 10.9194751,15.7641958 C11.3976399,15.0469502 12.047135,14.6126232 12.8679849,14.4612059 C13.6888317,14.3097854 14.4419311,14.4890969 15.1272983,14.999137 C15.8126654,15.4932395 16.2310546,16.1706287 16.382472,17.0313228 C16.5338924,17.8920201 16.3625529,18.6809792 15.8684474,19.3982249 L15.8684474,19.3982249 Z" id="key"></path>
            </g>
        </g>
    </g>
</svg>