<?xml version="1.0" encoding="UTF-8" standalone="no"?>
<svg width="9px" height="12px" viewBox="0 0 9 12" version="1.1" xmlns="http://www.w3.org/2000/svg" xmlns:xlink="http://www.w3.org/1999/xlink">
    <!-- Generator: Sketch 3.7.2 (28276) - http://www.bohemiancoding.com/sketch -->
    <title>place_pin</title>
    <desc>Created with Sketch.</desc>
    <defs></defs>
    <g id="Mobile" stroke="none" stroke-width="1" fill="none" fill-rule="evenodd">
        <g id="mobile_home" transform="translate(-95.000000, -482.000000)" fill="#FFFFFF">
            <path d="M99.1971831,487.690141 C99.610331,487.690141 99.9624392,487.544603 100.25352,487.25352 C100.544603,486.962439 100.690141,486.610331 100.690141,486.197183 C100.690141,485.784035 100.544603,485.431927 100.25352,485.140846 C99.9624392,484.849763 99.610331,484.704225 99.1971831,484.704225 C98.7840352,484.704225 98.431927,484.849763 98.140846,485.140846 C97.8497632,485.431927 97.7042254,485.784035 97.7042254,486.197183 C97.7042254,486.610331 97.8497632,486.962439 98.140846,487.25352 C98.431927,487.544603 98.7840352,487.690141 99.1971831,487.690141 L99.1971831,487.690141 Z M99.1971831,482 C100.361509,482 101.352108,482.408446 102.169013,483.225353 C102.98592,484.042258 103.394366,485.032857 103.394366,486.197183 C103.394366,486.779345 103.248828,487.446005 102.957746,488.197183 C102.666665,488.948361 102.314556,489.652579 101.901408,490.309859 C101.488261,490.967139 101.079814,491.582158 100.676057,492.154929 C100.272298,492.727702 99.9295793,493.183097 99.6478873,493.521127 L99.1971831,494 C99.084507,493.868544 98.9342729,493.694837 98.7464789,493.478873 C98.5586848,493.26291 98.2206603,492.830989 97.7323944,492.183099 C97.2441285,491.535209 96.8169041,490.906107 96.4507042,490.295774 C96.0845052,489.685443 95.7511752,488.995308 95.4507042,488.225352 C95.1502332,487.455396 95,486.779345 95,486.197183 C95,485.032857 95.4084466,484.042258 96.2253521,483.225353 C97.042258,482.408446 98.0328572,482 99.1971831,482 L99.1971831,482 Z" id="place_pin"></path>
        </g>
    </g>
</svg>