<?xml version="1.0" encoding="UTF-8" standalone="no"?>
<svg width="9px" height="12px" viewBox="0 0 9 12" version="1.1" xmlns="http://www.w3.org/2000/svg" xmlns:xlink="http://www.w3.org/1999/xlink">
    <!-- Generator: Sketch 3.7.2 (28276) - http://www.bohemiancoding.com/sketch -->
    <title>place_pin</title>
    <desc>Created with Sketch.</desc>
    <defs></defs>
    <g id="Mobile" stroke="none" stroke-width="1" fill="none" fill-rule="evenodd">
        <g id="mobile_home" transform="translate(-85.000000, -702.000000)" fill="#000000">
            <g id="thisweek_event" transform="translate(14.000000, 584.000000)">
                <g id="Group" transform="translate(70.000000, 96.000000)">
                    <g id="Group-2" transform="translate(1.000000, 19.000000)">
                        <path d="M4.1971831,8.69014085 C4.61033104,8.69014085 4.96243921,8.54460304 5.25352023,8.25352023 C5.54460304,7.96243921 5.69014085,7.61033104 5.69014085,7.1971831 C5.69014085,6.78403515 5.54460304,6.43192699 5.25352023,6.14084597 C4.96243921,5.84976315 4.61033104,5.70422535 4.1971831,5.70422535 C3.78403515,5.70422535 3.43192699,5.84976315 3.14084597,6.14084597 C2.84976315,6.43192699 2.70422535,6.78403515 2.70422535,7.1971831 C2.70422535,7.61033104 2.84976315,7.96243921 3.14084597,8.25352023 C3.43192699,8.54460304 3.78403515,8.69014085 4.1971831,8.69014085 L4.1971831,8.69014085 Z M4.1971831,3 C5.36150896,3 6.35210817,3.4084462 7.16901318,4.22535301 C7.98592,5.04225803 8.3943662,6.03285724 8.3943662,7.1971831 C8.3943662,7.77934513 8.24882839,8.44600518 7.95774558,9.1971831 C7.66666456,9.94836101 7.31455639,10.6525792 6.90140845,11.3098592 C6.48826051,11.9671392 6.07981431,12.5821575 5.67605724,13.1549287 C5.27229837,13.7277024 4.92957927,14.183097 4.64788732,14.5211268 L4.1971831,15 C4.08450704,14.8685439 3.9342729,14.6948368 3.74647887,14.4788732 C3.55868485,14.2629097 3.22066028,13.8309892 2.73239437,13.1830995 C2.24412845,12.5352086 1.81690411,11.9061066 1.45070423,11.2957737 C1.08450524,10.6854427 0.751175211,9.99530817 0.450704225,9.22535211 C0.150233239,8.45539606 0,7.77934513 0,7.1971831 C0,6.03285724 0.408446558,5.04225803 1.22535211,4.22535301 C2.04225803,3.4084462 3.03285724,3 4.1971831,3 L4.1971831,3 Z" id="place_pin"></path>
                    </g>
                </g>
            </g>
        </g>
    </g>
</svg>